<svg width="99" height="125" viewBox="0 0 99 125" fill="none" xmlns="http://www.w3.org/2000/svg">
<rect width="99" height="125" rx="35" fill="#1F1F1F"/>
<path d="M60.5859 73.0467C62.9614 71.6392 66.0287 72.4241 67.4364 74.7997C68.844 77.1753 68.059 80.2425 65.6835 81.6503L64.4189 82.3993C55.3029 87.8013 43.9665 87.8013 34.8505 82.3993L33.5859 81.6503L33.3681 81.5135C31.1633 80.0517 30.4692 77.1012 31.8329 74.7997C33.1967 72.4983 36.1179 71.6901 38.4589 72.9217L38.6835 73.0467L39.9482 73.7967C45.9207 77.336 53.3487 77.336 59.3212 73.7967L60.5859 73.0467Z" fill="white"/>
<rect x="19" y="26" width="31" height="31" rx="15.5" fill="white"/>
<rect x="50" y="26" width="31" height="31" rx="15.5" fill="white"/>
<rect x="25" y="29" width="19" height="19" rx="9.5" fill="#1F1F1F"/>
<rect x="56" y="29" width="19" height="19" rx="9.5" fill="#1F1F1F"/>
</svg>
