<svg width="99" height="125" viewBox="0 0 99 125" fill="none" xmlns="http://www.w3.org/2000/svg">
<rect width="99" height="125" rx="35" fill="#111111"/>
<path d="M50.5 87V82.3477H36.1348C33.3733 82.3477 31.1348 80.1091 31.1348 77.3477C31.1348 74.5862 33.3733 72.3477 36.1348 72.3477H63.1348C65.8962 72.3477 68.1348 74.5862 68.1348 77.3477C68.1348 80.1091 65.8962 82.3477 63.1348 82.3477H60.5V87C60.5 89.7614 58.2614 92 55.5 92C52.7386 92 50.5 89.7614 50.5 87Z" fill="white"/>
<rect x="19" y="26" width="31" height="31" rx="15.5" fill="white"/>
<rect x="50" y="26" width="31" height="31" rx="15.5" fill="white"/>
<rect x="23" y="29" width="19" height="19" rx="9.5" fill="#111111"/>
<rect x="58" y="29" width="19" height="19" rx="9.5" fill="#111111"/>
</svg>
