<svg width="99" height="125" viewBox="0 0 99 125" fill="none" xmlns="http://www.w3.org/2000/svg">
<rect width="99" height="125" rx="35" fill="#1F1F1F"/>
<path d="M60.5859 76.6486C62.9614 78.0561 66.0287 77.2712 67.4364 74.8956C68.844 72.5201 68.059 69.4528 65.6835 68.0451L64.4189 67.296C55.3029 61.894 43.9665 61.894 34.8505 67.296L33.5859 68.0451L33.3681 68.1818C31.1633 69.6436 30.4692 72.5941 31.8329 74.8956C33.1967 77.197 36.1179 78.0052 38.4589 76.7736L38.6835 76.6486L39.9482 75.8986C45.9207 72.3593 53.3487 72.3593 59.3212 75.8986L60.5859 76.6486Z" fill="white"/>
<rect x="19" y="26" width="31" height="31" rx="15.5" fill="white"/>
<rect x="50" y="26" width="31" height="31" rx="15.5" fill="white"/>
<rect x="23" y="34" width="19" height="19" rx="9.5" fill="#1F1F1F"/>
<rect x="54" y="34" width="19" height="19" rx="9.5" fill="#1F1F1F"/>
</svg>
